<svg width="141" height="99" viewBox="0 0 141 99" fill="none" xmlns="http://www.w3.org/2000/svg">
<rect x="74.0578" y="74.2011" width="28" height="28" rx="4" transform="rotate(-45 74.0578 74.2011)" stroke="#272727" stroke-width="2"/>
<rect x="25.4142" y="74.2132" width="28" height="28" rx="4" transform="rotate(-45 25.4142 74.2132)" fill="#272727" stroke="#272727" stroke-width="2"/>
<g filter="url(#filter0_d_28_2)">
<rect x="48" y="49.2132" width="30" height="30" rx="5" transform="rotate(-45 48 49.2132)" fill="#FF8E26"/>
<rect x="49.4142" y="49.2132" width="28" height="28" rx="4" transform="rotate(-45 49.4142 49.2132)" stroke="#272727" stroke-width="2"/>
</g>
<path d="M102.243 46.3848L113.092 35.5355C114.982 33.6456 118.213 34.9841 118.213 37.6569L118.213 60.7695C118.213 63.4423 114.982 64.7808 113.092 62.8909L102.243 52.0416C100.681 50.4795 100.681 47.9469 102.243 46.3848Z" fill="#272727" stroke="#272727" stroke-width="2"/>
<path d="M38.1838 46.3848L27.3345 35.5355C25.4446 33.6456 22.2132 34.9841 22.2132 37.6569L22.2132 60.7695C22.2132 63.4423 25.4446 64.7808 27.3345 62.8909L38.1838 52.0416C39.7459 50.4795 39.7459 47.9469 38.1838 46.3848Z" fill="#272727" stroke="#272727" stroke-width="2"/>
<rect x="25.4142" y="24.2132" width="28" height="28" rx="4" transform="rotate(-45 25.4142 24.2132)" stroke="#272727" stroke-width="2"/>
<rect x="74.4142" y="24.2132" width="28" height="28" rx="4" transform="rotate(-45 74.4142 24.2132)" fill="#272727" stroke="#272727" stroke-width="2"/>
<defs>
<filter id="filter0_d_28_2" x="20.0711" y="0.0710678" width="98.2843" height="98.2843" filterUnits="userSpaceOnUse" color-interpolation-filters="sRGB">
<feFlood flood-opacity="0" result="BackgroundImageFix"/>
<feColorMatrix in="SourceAlpha" type="matrix" values="0 0 0 0 0 0 0 0 0 0 0 0 0 0 0 0 0 0 127 0" result="hardAlpha"/>
<feOffset/>
<feGaussianBlur stdDeviation="15"/>
<feComposite in2="hardAlpha" operator="out"/>
<feColorMatrix type="matrix" values="0 0 0 0 0 0 0 0 0 0 0 0 0 0 0 0 0 0 0.5 0"/>
<feBlend mode="normal" in2="BackgroundImageFix" result="effect1_dropShadow_28_2"/>
<feBlend mode="normal" in="SourceGraphic" in2="effect1_dropShadow_28_2" result="shape"/>
</filter>
</defs>
</svg>
